<svg width="24" height="24" viewBox="0 0 24 24" fill="none" xmlns="http://www.w3.org/2000/svg">
<path d="M2 10C2 9.44772 2.44772 9 3 9H7C7.55228 9 8 9.44772 8 10V22H2V10Z" fill="#FACC15"/>
<path d="M9 14C9 13.4477 9.44772 13 10 13H14C14.5523 13 15 13.4477 15 14V22H9V14Z" fill="#60A5FA"/>
<path d="M16 18C16 17.4477 16.4477 17 17 17H21C21.5523 17 22 17.4477 22 18V22H16V18Z" fill="#EF4444"/>
<circle cx="5" cy="5" r="3" fill="#FACC15"/>
<circle cx="12" cy="9" r="3" fill="#60A5FA"/>
<circle cx="19" cy="13" r="3" fill="#EF4444"/>
</svg>
